<?xml version="1.0" encoding="UTF-8"?>
<!DOCTYPE svg PUBLIC "-//W3C//DTD SVG 1.1//EN" "http://www.w3.org/Graphics/SVG/1.1/DTD/svg11.dtd">
<!-- Creator: CorelDRAW X7 -->
<svg xmlns="http://www.w3.org/2000/svg" xml:space="preserve" width="2550px" height="3300px" version="1.1" style="shape-rendering:geometricPrecision; text-rendering:geometricPrecision; image-rendering:optimizeQuality; fill-rule:evenodd; clip-rule:evenodd"
viewBox="0 0 2550 3300"
 xmlns:xlink="http://www.w3.org/1999/xlink">
 <defs>
  <style type="text/css">
   <![CDATA[
    .str0 {stroke:#FEFEFE;stroke-width:33.3331}
    .fil1 {fill:#FEFEFE}
    .fil0 {fill:url(#id2)}
   ]]>
  </style>
    <mask id="id0">
  <linearGradient id="id1" gradientUnits="userSpaceOnUse" x1="1155.96" y1="1471.12" x2="1155.96" y2="392.046">
   <stop offset="0" style="stop-opacity:1; stop-color:white"/>
   <stop offset="1" style="stop-opacity:0; stop-color:white"/>
  </linearGradient>
     <rect style="fill:url(#id1)" x="558" y="391" width="1195" height="1081"/>
    </mask>
  <linearGradient id="id2" gradientUnits="userSpaceOnUse" x1="1317.93" y1="1834.69" x2="1317.93" y2="392.044">
   <stop offset="0" style="stop-opacity:1; stop-color:#F58634"/>
   <stop offset="1" style="stop-opacity:1; stop-color:#FFF212"/>
  </linearGradient>
 </defs>
 <g id="Layer_x0020_1">
  <metadata id="CorelCorpID_0Corel-Layer"/>
  <g id="_277075624">
   <polygon class="fil0 str0" points="559,1113 677,882 704,668 936,550 1084,392 1340,433 1552,392 1736,576 1932,668 1972,924 2076,1113 1958,1345 1932,1559 1700,1677 1552,1835 1296,1794 1084,1835 900,1651 704,1559 664,1303 "/>
   <path class="fil1" style="mask:url(#id0)" d="M559 1113l118 -231 27 -214 232 -118 148 -158 256 41 212 -41 184 184 16 7c-31,496 -442,888 -946,888 -39,0 -78,-2 -117,-7l-25 -161 -105 -190z"/>
  </g>
 </g>
</svg>
